# xmcd CD database file
#
# Track frame offsets:
#	150
#	17268
#	34602
#
# Disc length: 822 seconds
#
# Revision: 0
# Processed by: cddbd v1.4PL0 Copyright (c) Steve Scherf et al.
# Submitted via: CDex 1.50
#
DISCID=12033403
DTITLE=Jason Duncan - Demo
DYEAR=2003
DGENRE=Country
TTITLE0=These Lies
TTITLE1=These Lies Acoustic
TTITLE2=Two Shots (and an hour later)
EXTD=YEAR: 2003
EXTT0=
EXTT1=
EXTT2=
PLAYORDER=
